<svg xmlns="http://www.w3.org/2000/svg" version="1.1" xmlns:xlink="http://www.w3.org/1999/xlink" xmlns:svgjs="http://svgjs.dev/svgjs" width="1500" height="1500" viewBox="0 0 1500 1500"><g transform="matrix(1,0,0,1,-0.21332335329316265,-0.21332335329350371)"><svg viewBox="0 0 334 334" data-background-color="#ffffff" preserveAspectRatio="xMidYMid meet" height="1500" width="1500" xmlns="http://www.w3.org/2000/svg" xmlns:xlink="http://www.w3.org/1999/xlink"><g id="tight-bounds" transform="matrix(1,0,0,1,0.04749999999998522,0.04750000000001364)"><svg viewBox="0 0 333.90454557049503 333.90454557049503" height="333.90454557049503" width="333.90454557049503"><g><svg></svg></g><g><svg viewBox="0 0 333.90454557049503 333.90454557049503" height="333.90454557049503" width="333.90454557049503"><g><path d="M0 166.952c0-92.205 74.747-166.952 166.952-166.952 92.205 0 166.952 74.747 166.953 166.952 0 92.205-74.747 166.952-166.953 166.953-92.205 0-166.952-74.747-166.952-166.953zM166.952 327.159c88.48 0 160.207-71.727 160.207-160.207 0-88.48-71.727-160.207-160.207-160.206-88.48 0-160.207 71.727-160.206 160.206 0 88.48 71.727 160.207 160.206 160.207z" data-fill-palette-color="tertiary" fill="#915eff" stroke="transparent"></path><ellipse rx="160.27418187383762" ry="160.27418187383762" cx="166.95227278524752" cy="166.95227278524752" fill="#915eff" stroke="transparent" stroke-width="0" fill-opacity="1" data-fill-palette-color="tertiary"></ellipse></g><g transform="matrix(1,0,0,1,105.4561930417128,71.17305217166896)"><svg viewBox="0 0 122.99215948706944 191.55844122715712" height="191.55844122715712" width="122.99215948706944"><g><svg viewBox="0 0 122.99215948706944 191.55844122715712" height="191.55844122715712" width="122.99215948706944"><g><svg viewBox="0 0 263.4638333567662 410.34096358686634" height="191.55844122715712" width="122.99215948706944"><g transform="matrix(1,0,0,1,25.152696064804545,0)"><svg viewBox="0 0 213.1584412271571 160.23064204757205" height="160.23064204757205" width="213.1584412271571"><g id="textblocktransform"><svg viewBox="0 0 213.1584412271571 160.23064204757205" height="160.23064204757205" width="213.1584412271571" id="textblock"><g><svg viewBox="0 0 213.1584412271571 160.23064204757205" height="160.23064204757205" width="213.1584412271571"><g transform="matrix(1,0,0,1,0,0)"><svg width="213.1584412271571" viewBox="0.9 -35.8 51.550000000000004 38.75" height="160.23064204757205" data-palette-color="#ffffff"><path d="M11.4-30.3L11.4-30.3Q9.3-28 9.3-24.48 9.3-20.95 11.1-20.25L11.1-20.25Q11.55-20.1 11.55-19.6L11.55-19.6Q11.55-18.1 10.55-17.07 9.55-16.05 8.1-15.85L8.1-15.85Q7.65-15.85 7.65-15.5L7.65-15.5Q7.6-14.95 7.6-13.93 7.6-12.9 7.7-11.68 7.8-10.45 8.18-8.78 8.55-7.1 9.18-5.88 9.8-4.65 10.98-3.78 12.15-2.9 13.7-2.9 15.25-2.9 16.55-3.8L16.55-3.8Q15.4-6.4 14.15-7.5L14.15-7.5 13.75-7.85Q13.6-8.05 13.6-8.25L13.6-8.25Q13.6-8.8 14.6-8.8L14.6-8.8Q16.65-8.8 18.8-6.65L18.8-6.65Q20.7-10.55 20.7-16.8L20.7-16.8Q20.7-26.9 17.35-30.2L17.35-30.2Q15.9-31.6 14.25-31.6 12.6-31.6 11.4-30.3ZM5.4-27.15L5.4-27.15 5.6-27.45Q6.1-29.75 7.23-31.43 8.35-33.1 9.47-33.93 10.6-34.75 12-35.2L12-35.2Q13.85-35.8 15.25-35.8L15.25-35.8Q18.6-35.8 21.03-34.25 23.45-32.7 24.7-30.05L24.7-30.05Q27-25 27-18.6L27-18.6Q27-7.85 21.9-2.75L21.9-2.75Q24.25-0.15 26.5-0.15L26.5-0.15Q27.15-0.15 27.15 0.3L27.15 0.3Q27.15 1.1 25.3 2.02 23.45 2.95 21.35 2.95L21.35 2.95 19.75 2.8Q19.1 2.7 18.7 2.33 18.3 1.95 18.2 1.3L18.2 1.3 17.85-0.1Q15.5 0.85 13.05 0.85L13.05 0.85Q6.8 0.85 3.85-3.43 0.9-7.7 0.9-14.25L0.9-14.25Q0.9-18.05 1.55-21.23 2.2-24.4 2.9-25.7L2.9-25.7 3.55-27Q3.75-27.45 4.2-27.45 4.65-27.45 4.88-27.38 5.1-27.3 5.23-27.23 5.35-27.15 5.4-27.15ZM51.2-11.45L51.2-11.45Q52.15-11.45 52.15-9.05 52.15-6.65 51.25-4.75 50.35-2.85 49.07-1.8 47.8-0.75 46.2-0.1L46.2-0.1Q40.85 2.25 36.2-0.2L36.2-0.2Q33.85-1.45 32.6-3.18 31.35-4.9 30.6-7.3L30.6-7.3Q29.45-10.9 29.45-14.85 29.45-18.8 30.2-22.25 30.95-25.7 32.5-28.83 34.05-31.95 36.9-33.85 39.75-35.75 43.5-35.75L43.5-35.75Q45.1-35.75 46.82-35.23 48.55-34.7 49.65-33.93 50.75-33.15 51.6-31.55 52.45-29.95 52.45-27.8L52.45-27.8Q52.45-25.5 51.35-23.65L51.35-23.65Q50.85-22.8 49.75-22.13 48.65-21.45 47.15-21.45L47.15-21.45Q44.85-21.45 43.9-23.5L43.9-23.5Q43.5-24.3 43.5-25.25 43.5-26.2 44.15-26.35L44.15-26.35Q44.85-26.55 45.45-27.45 46.05-28.35 46.05-29.55L46.05-29.55Q46.05-30.5 45.55-31.2L45.55-31.2Q44.6-32.45 42.8-32.45 41-32.45 39.52-30.8 38.05-29.15 37.3-26.65L37.3-26.65Q35.8-21.65 35.8-17.45L35.8-17.45Q35.8-13.25 36.95-10.7L36.95-10.7Q38.35-7.55 40.5-6.5L40.5-6.5Q41.85-5.85 43.6-5.85L43.6-5.85Q46.55-5.85 48.9-8.5L48.9-8.5Q49.9-9.55 50.55-11L50.55-11Q50.8-11.45 51.2-11.45Z" opacity="1" transform="matrix(1,0,0,1,0,0)" fill="#ffffff" class="wordmark-text-0" data-fill-palette-color="quaternary" id="text-0"></path></svg></g></svg></g></svg></g></svg></g><g transform="matrix(1,0,0,1,0,198.05725109959468)"><svg viewBox="0 0 263.4638333567662 212.28371248727166" height="212.28371248727166" width="263.4638333567662"><g><svg xmlns="http://www.w3.org/2000/svg" xmlns:xlink="http://www.w3.org/1999/xlink" version="1.1" x="0" y="0" viewBox="11 16.633 58 46.733000000000004" enable-background="new 0 0 80 80" xml:space="preserve" height="212.28371248727166" width="263.4638333567662" class="icon-icon-0" data-fill-palette-color="quaternary" id="icon-0"><g fill="#ffffff" data-fill-palette-color="quaternary"><path d="M69 40C69 38.224 67.876 36.672 65.965 35.354 65.981 35.237 66 35.121 66 35A2.5 2.5 0 0 0 61.733 33.231 36 36 0 0 0 58.686 32.248C61.888 26.21 63.08 20.837 60.53 18.104 59.619 17.128 58.33 16.633 56.699 16.633 52.604 16.633 46.412 19.932 40 25.29 37.93 23.561 35.885 22.043 33.924 20.786 33.971 20.575 34 20.358 34 20.133A3 3 0 0 0 28.856 18.038C26.768 17.135 24.876 16.633 23.301 16.633 21.67 16.633 20.381 17.128 19.469 18.104 16.918 20.836 18.11 26.209 21.312 32.248 15.233 33.934 11 36.543 11 40S15.233 46.066 21.313 47.752C20.368 49.533 19.599 51.256 19.049 52.871 19.032 52.871 19.016 52.866 19 52.866A3 3 0 0 0 16 55.866C16 57.222 16.904 58.353 18.138 58.725 18.271 59.987 18.695 61.065 19.47 61.895 20.381 62.871 21.67 63.366 23.301 63.366 27.396 63.366 33.587 60.067 40 54.71 46.412 60.067 52.604 63.366 56.698 63.366 58.33 63.366 59.619 62.871 60.53 61.895 63.081 59.163 61.888 53.79 58.687 47.751 64.767 46.066 69 43.457 69 40M56.699 18.633C57.753 18.633 58.55 18.914 59.067 19.468 60.684 21.201 59.808 25.826 56.647 31.733 53.201 30.94 49.303 30.413 45.315 30.165A83 83 0 0 0 41.538 26.611C47.46 21.708 53.131 18.633 56.699 18.633M45.868 46.389A82 82 0 0 1 44.431 47.888 87 87 0 0 1 35.568 47.888 83 83 0 0 1 28.735 40 83 83 0 0 1 35.567 32.113 87 87 0 0 1 44.432 32.113 83 83 0 0 1 51.265 40 84 84 0 0 1 45.868 46.389M52.498 41.677A64 64 0 0 1 55.627 46.446C53.193 46.986 50.43 47.411 47.399 47.68A87 87 0 0 0 52.498 41.677M42.313 49.967A78 78 0 0 1 40 52.078 79 79 0 0 1 37.687 49.967C38.458 49.987 39.23 50 40 50S41.542 49.987 42.313 49.967M32.602 47.68C29.571 47.41 26.807 46.986 24.373 46.446A64 64 0 0 1 27.502 41.677 87 87 0 0 0 32.602 47.68M27.502 38.323A64 64 0 0 1 24.373 33.554C26.807 33.014 29.571 32.589 32.601 32.32A87 87 0 0 0 27.502 38.323M37.686 30.033A79 79 0 0 1 40 27.922 78 78 0 0 1 42.313 30.033C41.542 30.012 40.77 30 40 30S38.458 30.012 37.686 30.033M47.399 32.321C50.428 32.59 53.193 33.015 55.626 33.555A64 64 0 0 1 52.498 38.324 87 87 0 0 0 47.399 32.321M20.932 19.469C21.45 18.914 22.247 18.633 23.302 18.633 24.62 18.633 26.231 19.061 28.031 19.836 28.02 19.936 28 20.032 28 20.133 28 21.791 29.342 23.133 31 23.133 31.705 23.133 32.345 22.88 32.857 22.473 34.658 23.633 36.545 25.025 38.461 26.612A81 81 0 0 0 34.685 30.166C30.696 30.415 26.798 30.941 23.352 31.734 20.191 25.827 19.314 21.202 20.932 19.469M13 40C13 37.883 16.473 35.631 22.318 34.058A68 68 0 0 0 26.241 40 68 68 0 0 0 22.319 45.942C16.473 44.369 13 42.117 13 40M23.301 61.366C22.247 61.366 21.449 61.085 20.932 60.53 20.514 60.083 20.282 59.422 20.192 58.617A3 3 0 0 0 22 55.866 2.98 2.98 0 0 0 20.98 53.628C21.517 52.019 22.31 50.213 23.352 48.267 26.798 49.059 30.696 49.586 34.685 49.834A81 81 0 0 0 38.462 53.389C32.541 58.292 26.869 61.366 23.301 61.366M59.067 60.53C58.549 61.085 57.753 61.366 56.698 61.366 53.131 61.366 47.459 58.291 41.539 53.388A82 82 0 0 0 45.315 49.833C49.304 49.585 53.202 49.058 56.647 48.266 59.809 54.173 60.686 58.798 59.067 60.53M57.682 45.942A68 68 0 0 0 53.76 40 68 68 0 0 0 57.682 34.058C58.899 34.386 60.011 34.743 61.013 35.122A2.493 2.493 0 0 0 64.898 37.072C66.261 38.024 67 39.026 67 40 67 42.117 63.526 44.369 57.682 45.942" fill="#ffffff" data-fill-palette-color="quaternary"></path><circle cx="40" cy="40" r="4.0" fill="#ffffff" data-fill-palette-color="quaternary"></circle></g></svg></g></svg></g><g></g></svg></g></svg></g></svg></g></svg></g><defs></defs></svg><rect width="333.90454557049503" height="333.90454557049503" fill="none" stroke="none" visibility="hidden"></rect></g></svg></g></svg>